# xmcd
# 
# Track frame offsets:
#     150
#     8554
#     18811
#     31442
#     41394
#     53453
#     66067
#     79066
#     90041
#     102905
#     115245
#     124705
#     135428
#     149162
#     161916
#     171267
# 
# Disc length: 2395
# 
# Revision: 1
# Processed by: cddbd v1.5.2PL0 Copyright (c) Steve Scherf et al.
# Submitted via: fre:ac v1.0.31
# 
DISCID=c1095910
DTITLE=Various Artist - Ultimate Country [ CD 1 ]
DYEAR=2005
DGENRE=Country
TTITLE0=Johnny Cash - Country Boy
TTITLE1=Frankie Laine - I Believe in You
TTITLE2=David Houston - My Elusive Dreams
TTITLE3=Ferlin Husky - The Wings of a Dove
TTITLE4=Waylon Jennings - Don't Think Twice, It's All Right
TTITLE5=Billie Jo Spears - 57 Chevrolet
TTITLE6=Freddy Fender - Silver Wings
TTITLE7=Gene Autry - You are my Sunshine
TTITLE8=Lynn Anderson - Rose Garden
TTITLE9=Jim Reeves - Your Old Love Letters
TTITLE10=Merle Haggard - The Legend of Bonnie and Clyde
TTITLE11=Patsy Cline - I Can See an Angel Walkin'
TTITLE12=Patti Page - Tennessee Waltz
TTITLE13=Porter Wagoner - A Satisfied Mind
TTITLE14=The Harden Trio - Tippytoeing
TTITLE15=Waylon Jennings - Abilene
EXTD=YEAR: 2005
EXTT0=
EXTT1=
EXTT2=
EXTT3=
EXTT4=
EXTT5=
EXTT6=
EXTT7=
EXTT8=
EXTT9=
EXTT10=
EXTT11=
EXTT12=
EXTT13=
EXTT14=
EXTT15=
PLAYORDER=
